<?xml version="1.0" encoding="UTF-8" standalone="no"?>
<!DOCTYPE svg PUBLIC "-//W3C//DTD SVG 1.1//EN" "http://www.w3.org/Graphics/SVG/1.1/DTD/svg11.dtd">
<svg width="100%" height="100%" viewBox="0 0 3876 1108" version="1.1" xmlns="http://www.w3.org/2000/svg" xmlns:xlink="http://www.w3.org/1999/xlink" xml:space="preserve" xmlns:serif="http://www.serif.com/" style="fill-rule:evenodd;clip-rule:evenodd;stroke-linejoin:round;stroke-miterlimit:2;">
    <g transform="matrix(1,0,0,1,-165364,-12669)">
        <g transform="matrix(1.43901,0,0,1,126485,-19905)">
            <g id="ChirpChirp-Logo---Pill---Normal" serif:id="ChirpChirp Logo - Pill - Normal" transform="matrix(1.06641,0,0,2.14851,-6975.99,16942.6)">
                <g transform="matrix(0.580202,0,0,0.427497,-56000.5,217.554)">
                    <path d="M155813,17113C155813,16953.1 155747,16799.7 155630,16686.7C155514,16573.6 155356,16510.1 155191,16510.1C154363,16510.1 152910,16510.1 152083,16510.1C151740,16510.1 151461,16780 151461,17113C151461,17113 151461,17113 151461,17113C151461,17272.9 151527,17426.3 151643,17539.4C151760,17652.5 151918,17716 152083,17716C152910,17716 154363,17716 155191,17716C155356,17716 155514,17652.5 155630,17539.4C155747,17426.3 155813,17272.9 155813,17113L155813,17113Z" style="fill:rgb(84,192,222);"/>
                </g>
                <g transform="matrix(1,0,0,0.714256,21273.2,7962.76)">
                    <g>
                        <g>
                            <g>
                                <g transform="matrix(1,0,0,1,-10,61.005)">
                                    <g transform="matrix(1.27189,-0.226376,0.209358,0.686627,-5963.19,-4202.54)">
                                        <path d="M13224.6,9470.2C13248.8,9470.2 13260.4,9464.14 13261.5,9454.23L13265.3,9414.56C13266.4,9404.65 13256.5,9399.14 13232.3,9399.14C13207,9399.14 13195.9,9404.65 13195.4,9414.56L13191,9454.23C13190.4,9464.69 13199.8,9470.2 13224.6,9470.2Z" style="fill:rgb(255,253,116);"/>
                                    </g>
                                    <g transform="matrix(0.87169,-0.953466,0.583893,0.41756,-4245.66,7864.16)">
                                        <path d="M13224.6,9470.2C13248.8,9470.2 13260.4,9464.14 13261.5,9454.23L13265.3,9414.56C13266.4,9404.65 13256.5,9399.14 13232.3,9399.14C13207,9399.14 13195.9,9404.65 13195.4,9414.56L13191,9454.23C13190.4,9464.69 13199.8,9470.2 13224.6,9470.2Z" style="fill:rgb(255,253,116);"/>
                                    </g>
                                </g>
                                <g transform="matrix(0.840058,0,0,0.840058,2195.8,-8699.3)">
                                    <g transform="matrix(1,0,0,1,6.96447,9.09495e-13)">
                                        <path d="M12153.7,9791.37L12164.1,9791.37C12183.4,9791.37 12193.9,9785.86 12195,9774.84C12195,9774.84 12208.8,9639.89 12212.7,9601.83C12213.5,9594.32 12216.6,9587.24 12221.7,9581.62C12234.5,9567.27 12249.6,9560.55 12263.2,9560.55C12278.6,9560.55 12286.1,9562.79 12295,9567.89C12305.4,9573.85 12313.1,9542.08 12307.2,9521.99C12303.9,9510.89 12298.2,9498.3 12278.4,9498.3C12249.2,9498.3 12232.7,9516.6 12218.2,9538.06C12218,9538.43 12217.5,9538.6 12217.1,9538.48C12216.7,9538.36 12216.3,9537.98 12216.3,9537.54C12215.5,9520.97 12211.7,9504.91 12198.3,9504.91C12162.5,9504.91 12146.5,9509.86 12145.9,9522.54C12145.9,9527.49 12147.6,9534.1 12147.6,9549.53C12147.6,9558.89 12147,9572.12 12145.4,9590.3L12125.6,9774.29C12124.5,9784.21 12133.8,9791.37 12153.7,9791.37Z" style="fill:white;fill-rule:nonzero;"/>
                                    </g>
                                    <g transform="matrix(1,0,0,1,9.34526,9.09495e-13)">
                                        <path d="M12308.5,9904.3L12319.5,9904.3C12338.2,9904.3 12349.2,9898.79 12350.3,9888.33L12362.4,9769.88C12375.7,9780.35 12397.1,9794.12 12426.9,9794.12C12506.8,9794.12 12560.2,9721.96 12560.2,9616.74C12560.2,9533.55 12512.8,9499.24 12460.5,9498.3C12429.8,9497.75 12398,9517.64 12384.7,9538.59C12384.5,9538.99 12384,9539.18 12383.6,9539.07C12383.1,9538.95 12382.8,9538.56 12382.8,9538.1C12382.4,9515.73 12378.4,9503.97 12368.8,9499.88C12346.4,9490.35 12313.1,9494.74 12315.6,9506.79C12320.8,9531.42 12317.6,9561.45 12315.2,9588.64C12309.7,9652.32 12280.9,9888.88 12280.9,9888.88C12280.4,9897.14 12289.2,9904.3 12308.5,9904.3ZM12412.6,9738.48C12412.6,9738.48 12412.6,9738.48 12412.6,9738.48C12400.6,9738.48 12389.2,9733.42 12381.1,9724.54C12373.1,9715.66 12369.1,9703.79 12370.3,9691.86C12372.7,9667.03 12376.1,9633.16 12377.6,9617.54C12378.2,9611.19 12380,9605 12382.9,9599.31C12398,9569.62 12417.8,9555.59 12436.8,9555.59C12469.3,9555.59 12489.7,9574.87 12489.7,9621.15C12489.7,9690.01 12466.6,9738.48 12412.6,9738.48Z" style="fill:white;fill-rule:nonzero;"/>
                                    </g>
                                    <g transform="matrix(0.999912,0.0133024,-0.0133024,0.999912,-1000.21,-168.539)">
                                        <path d="M12738.7,9794.12C12760.5,9794.12 12794.2,9786.34 12817.2,9780.27C12832.9,9776.1 12844.2,9762.47 12845.5,9746.28C12846.9,9728.61 12846.9,9708.74 12839.5,9708.74C12831.8,9708.74 12799.3,9732.42 12745.3,9732.42C12682.5,9732.42 12652.2,9698.27 12652.2,9628.31C12652.2,9520.33 12695.7,9462.49 12775.1,9462.49C12827.9,9462.49 12848.9,9482.32 12855.5,9482.32C12860.9,9482.32 12866.7,9466.25 12871,9450.58C12873.3,9442.72 12872.3,9434.3 12868.3,9427.18C12864.3,9420.07 12857.6,9414.84 12849.7,9412.68C12829.3,9407.07 12802,9400.79 12782.8,9400.79C12649.5,9400.79 12577.3,9483.97 12577.3,9638.22C12577.3,9745.09 12629.6,9794.12 12738.7,9794.12Z" style="fill:white;fill-rule:nonzero;"/>
                                    </g>
                                    <g transform="matrix(1,0,0,1,-1152.81,9.09495e-13)">
                                        <path d="M13111.1,9794.12C13127.1,9794.12 13150.8,9787.51 13154.1,9769.33C13157.4,9752.26 13157.4,9743.44 13157.4,9741.24C13157.4,9736.83 13156.3,9735.18 13153.5,9735.18C13150.8,9735.18 13144.7,9739.03 13135.9,9739.03C13124.3,9739.03 13118.8,9732.42 13120.5,9717L13133.7,9579.83C13138.6,9523.09 13112.2,9498.3 13062.1,9498.3C13031.1,9498.3 12999.7,9513.77 12977.7,9538.74C12977.4,9539.08 12977,9539.19 12976.5,9539.01C12976.1,9538.83 12975.9,9538.4 12975.9,9537.95C12978.3,9515.86 12991.6,9390.87 12991.6,9390.87C12992.7,9382.06 12983.3,9375.45 12963.5,9375.45L12953,9375.45C12933.7,9375.45 12923.2,9380.41 12922.1,9390.87L12881.4,9775.94C12880.3,9784.21 12889.6,9791.37 12909.5,9791.37L12919.9,9791.37C12938.7,9791.37 12949.7,9785.86 12950.8,9775.39C12950.8,9775.39 12963.8,9651.27 12967.5,9616.04C12968.2,9609.03 12970.4,9602.25 12973.8,9596.12C12989.1,9569.21 13010.2,9556.14 13031.8,9556.14C13054.4,9556.14 13065.9,9567.16 13063.2,9594.15L13051,9722.51C13045.5,9775.39 13072,9794.12 13111.1,9794.12Z" style="fill:white;fill-rule:nonzero;"/>
                                    </g>
                                    <g transform="matrix(1,0,0,1,-1148.05,9.09495e-13)">
                                        <path d="M13224.6,9470.2C13248.8,9470.2 13260.4,9464.14 13261.5,9454.23L13265.3,9414.56C13266.4,9404.65 13256.5,9399.14 13232.3,9399.14C13207,9399.14 13195.9,9404.65 13195.4,9414.56L13191,9454.23C13190.4,9464.69 13199.8,9470.2 13224.6,9470.2ZM13222.9,9794.12C13240.6,9794.12 13264.2,9787.51 13267.5,9769.33C13270.9,9752.26 13270.9,9743.44 13270.9,9741.24C13270.9,9736.83 13269.8,9735.18 13267,9735.18C13264.2,9735.18 13258.2,9739.03 13249.4,9739.03C13237.8,9739.03 13232.8,9732.98 13234.5,9717L13254.9,9516.48C13255.4,9507.66 13246.6,9501.05 13226.8,9501.05L13216.3,9501.05C13197,9501.05 13186.6,9506.01 13185.5,9517.03L13165.1,9719.2C13159,9775.39 13185.5,9794.12 13222.9,9794.12Z" style="fill:white;fill-rule:nonzero;"/>
                                    </g>
                                </g>
                            </g>
                            <g transform="matrix(0.840058,0,0,0.840058,1243.37,-8699.3)">
                                <g>
                                    <g transform="matrix(1,0,0,1,6.96447,9.09495e-13)">
                                        <path d="M12153.7,9791.37L12164.1,9791.37C12183.4,9791.37 12193.9,9785.86 12195,9774.84C12195,9774.84 12208.8,9639.89 12212.7,9601.83C12213.5,9594.32 12216.6,9587.24 12221.7,9581.62C12234.5,9567.27 12249.6,9560.55 12263.2,9560.55C12278.6,9560.55 12286.1,9562.79 12295,9567.89C12305.4,9573.85 12313.1,9542.08 12307.2,9521.99C12303.9,9510.89 12298.2,9498.3 12278.4,9498.3C12249.2,9498.3 12232.7,9516.6 12218.2,9538.06C12218,9538.43 12217.5,9538.6 12217.1,9538.48C12216.7,9538.36 12216.3,9537.98 12216.3,9537.54C12215.5,9520.97 12211.7,9504.91 12198.3,9504.91C12162.5,9504.91 12146.5,9509.86 12145.9,9522.54C12145.9,9527.49 12147.6,9534.1 12147.6,9549.53C12147.6,9558.89 12147,9572.12 12145.4,9590.3L12125.6,9774.29C12124.5,9784.21 12133.8,9791.37 12153.7,9791.37Z" style="fill:white;fill-rule:nonzero;"/>
                                    </g>
                                    <g transform="matrix(1,0,0,1,9.34526,9.09495e-13)">
                                        <path d="M12308.5,9904.3L12319.5,9904.3C12338.2,9904.3 12349.2,9898.79 12350.3,9888.33L12362.4,9769.88C12375.7,9780.35 12397.1,9794.12 12426.9,9794.12C12506.8,9794.12 12560.2,9721.96 12560.2,9616.74C12560.2,9533.55 12512.8,9499.24 12460.5,9498.3C12429.8,9497.75 12398,9517.64 12384.7,9538.59C12384.5,9538.99 12384,9539.18 12383.6,9539.07C12383.1,9538.95 12382.8,9538.56 12382.8,9538.1C12382.4,9515.73 12378.4,9503.97 12368.8,9499.88C12346.4,9490.35 12313.1,9494.74 12315.6,9506.79C12320.8,9531.42 12317.6,9561.45 12315.2,9588.64C12309.7,9652.32 12280.9,9888.88 12280.9,9888.88C12280.4,9897.14 12289.2,9904.3 12308.5,9904.3ZM12412.6,9738.48C12412.6,9738.48 12412.6,9738.48 12412.6,9738.48C12400.6,9738.48 12389.2,9733.42 12381.1,9724.54C12373.1,9715.66 12369.1,9703.79 12370.3,9691.86C12372.7,9667.03 12376.1,9633.16 12377.6,9617.54C12378.2,9611.19 12380,9605 12382.9,9599.31C12398,9569.62 12417.8,9555.59 12436.8,9555.59C12469.3,9555.59 12489.7,9574.87 12489.7,9621.15C12489.7,9690.01 12466.6,9738.48 12412.6,9738.48Z" style="fill:white;fill-rule:nonzero;"/>
                                    </g>
                                    <g transform="matrix(0.999912,0.0133024,-0.0133024,0.999912,-1000.21,-168.539)">
                                        <path d="M12738.7,9794.12C12760.5,9794.12 12794.2,9786.34 12817.2,9780.27C12832.9,9776.1 12844.2,9762.47 12845.5,9746.28C12846.9,9728.61 12846.9,9708.74 12839.5,9708.74C12831.8,9708.74 12799.3,9732.42 12745.3,9732.42C12682.5,9732.42 12652.2,9698.27 12652.2,9628.31C12652.2,9520.33 12695.7,9462.49 12775.1,9462.49C12827.9,9462.49 12848.9,9482.32 12855.5,9482.32C12860.9,9482.32 12866.7,9466.25 12871,9450.58C12873.3,9442.72 12872.3,9434.3 12868.3,9427.18C12864.3,9420.07 12857.6,9414.84 12849.7,9412.68C12829.3,9407.07 12802,9400.79 12782.8,9400.79C12649.5,9400.79 12577.3,9483.97 12577.3,9638.22C12577.3,9745.09 12629.6,9794.12 12738.7,9794.12Z" style="fill:white;fill-rule:nonzero;"/>
                                    </g>
                                    <g transform="matrix(1,0,0,1,-1152.81,9.09495e-13)">
                                        <path d="M13111.1,9794.12C13127.1,9794.12 13150.8,9787.51 13154.1,9769.33C13157.4,9752.26 13157.4,9743.44 13157.4,9741.24C13157.4,9736.83 13156.3,9735.18 13153.5,9735.18C13150.8,9735.18 13144.7,9739.03 13135.9,9739.03C13124.3,9739.03 13118.8,9732.42 13120.5,9717L13133.7,9579.83C13138.6,9523.09 13112.2,9498.3 13062.1,9498.3C13031.1,9498.3 12999.7,9513.77 12977.7,9538.74C12977.4,9539.08 12977,9539.19 12976.5,9539.01C12976.1,9538.83 12975.9,9538.4 12975.9,9537.95C12978.3,9515.86 12991.6,9390.87 12991.6,9390.87C12992.7,9382.06 12983.3,9375.45 12963.5,9375.45L12953,9375.45C12933.7,9375.45 12923.2,9380.41 12922.1,9390.87L12881.4,9775.94C12880.3,9784.21 12889.6,9791.37 12909.5,9791.37L12919.9,9791.37C12938.7,9791.37 12949.7,9785.86 12950.8,9775.39C12950.8,9775.39 12963.8,9651.27 12967.5,9616.04C12968.2,9609.03 12970.4,9602.25 12973.8,9596.12C12989.1,9569.21 13010.2,9556.14 13031.8,9556.14C13054.4,9556.14 13065.9,9567.16 13063.2,9594.15L13051,9722.51C13045.5,9775.39 13072,9794.12 13111.1,9794.12Z" style="fill:white;fill-rule:nonzero;"/>
                                    </g>
                                    <g transform="matrix(1,0,0,1,-1148.05,9.09495e-13)">
                                        <path d="M13224.6,9470.2C13248.8,9470.2 13260.4,9464.14 13261.5,9454.23L13265.3,9414.56C13266.4,9404.65 13256.5,9399.14 13232.3,9399.14C13207,9399.14 13195.9,9404.65 13195.4,9414.56L13191,9454.23C13190.4,9464.69 13199.8,9470.2 13224.6,9470.2ZM13222.9,9794.12C13240.6,9794.12 13264.2,9787.51 13267.5,9769.33C13270.9,9752.26 13270.9,9743.44 13270.9,9741.24C13270.9,9736.83 13269.8,9735.18 13267,9735.18C13264.2,9735.18 13258.2,9739.03 13249.4,9739.03C13237.8,9739.03 13232.8,9732.98 13234.5,9717L13254.9,9516.48C13255.4,9507.66 13246.6,9501.05 13226.8,9501.05L13216.3,9501.05C13197,9501.05 13186.6,9506.01 13185.5,9517.03L13165.1,9719.2C13159,9775.39 13185.5,9794.12 13222.9,9794.12Z" style="fill:white;fill-rule:nonzero;"/>
                                    </g>
                                </g>
                            </g>
                        </g>
                    </g>
                </g>
            </g>
        </g>
    </g>
</svg>
